<?xml version="1.0" encoding="utf-8"?>
<!-- Generator: Adobe Illustrator 14.0.0, SVG Export Plug-In . SVG Version: 6.00 Build 43363)  -->
<!DOCTYPE svg PUBLIC "-//W3C//DTD SVG 1.1//EN" "http://www.w3.org/Graphics/SVG/1.1/DTD/svg11.dtd">
<svg version="1.1" id="Layer_1" xmlns="http://www.w3.org/2000/svg" xmlns:xlink="http://www.w3.org/1999/xlink" x="0px" y="0px"
	 width="300px" height="300px" viewBox="0 0 300 300" enable-background="new 0 0 300 300" xml:space="preserve">
<path fill="#E9E5DC" d="M175.828,300v-65.578c0-4.907,3.979-8.884,8.887-8.884h55.505c4.907,0,8.886,3.977,8.886,8.884V300
	 M241.007,300v-57.093c0-4.908-3.979-8.887-8.885-8.887h-38.536c-4.908,0-8.886,3.979-8.886,8.887V300"/>
<path fill="none" stroke="#D7C3A5" stroke-width="0.5" d="M0,21.875h133.005c4.908,0,8.885,3.979,8.885,8.886v136.586
	c0,4.908-3.978,8.887-8.885,8.887H0 M0,166.977h125.292c4.907,0,8.886-3.979,8.886-8.885V39.338c0-4.908-3.979-8.886-8.886-8.886H0"
	/>
<path fill="#E9E5DC" d="M249.105,0v65.917c0,4.907-3.978,8.886-8.886,8.886h-55.504c-4.908,0-8.886-3.979-8.886-8.886V0 M184.7,0
	v57.433c0,4.907,3.978,8.885,8.886,8.885h38.536c4.905,0,8.885-3.978,8.885-8.885V0"/>
<path fill="none" stroke="#D7C3A5" stroke-width="0.5" d="M300,30.452H172.897c-4.907,0-8.886,3.979-8.886,8.886v118.754
	c0,4.906,3.979,8.885,8.886,8.885H300 M299.999,176.233H165.185c-4.907,0-8.886-3.979-8.886-8.887V30.761
	c0-4.907,3.979-8.886,8.886-8.886H300"/>
</svg>
