<svg xmlns="http://www.w3.org/2000/svg" version="1.1" xmlns:xlink="http://www.w3.org/1999/xlink" xmlns:svgjs="http://svgjs.com/svgjs" width="100px" height="100px"><svg version="1.1" id="SvgjsSvg1000" xmlns="http://www.w3.org/2000/svg" xmlns:xlink="http://www.w3.org/1999/xlink" x="0px" y="0px" width="100px" height="100px" viewBox="0 0 100 100" enable-background="new 0 0 100 100" xml:space="preserve">
<path fill="none" stroke="#D7C3A5" enable-background="new    " d="M3.658,49.944v18.034c0,1.174,0.952,2.126,2.125,2.126h62.039
	c1.174,0,2.125-0.952,2.125-2.126V49.944"></path>
<path fill="none" stroke="#D7C3A5" enable-background="new    " d="M6.07,49.944v15.673c0,1.174,0.873,2.125,1.95,2.125h57.463
	c1.077,0,1.95-0.951,1.95-2.125V49.944"></path>
<path fill="none" stroke="#D7C3A5" enable-background="new    " d="M96.602,49.944V83.25c0,2.146-1.74,3.887-3.887,3.887H7.544
	c-2.146,0-3.886-1.741-3.886-3.887V49.944"></path>
<path fill="none" stroke="#D7C3A5" enable-background="new    " d="M92.115,49.944v25.534c0,2.146-1.739,3.886-3.887,3.886H12.414
	c-2.146,0-3.886-1.74-3.886-3.886V49.944"></path>
<path fill="none" stroke="#6D6E71" enable-background="new    " d="M69.947,50.138V32.104c0-1.174-0.951-2.126-2.125-2.126H5.784
	c-1.174,0-2.125,0.952-2.125,2.126v18.034"></path>
<path fill="none" stroke="#6D6E71" enable-background="new    " d="M67.433,50.138V34.465c0-1.174-0.873-2.125-1.95-2.125H8.02
	c-1.077,0-1.95,0.951-1.95,2.125v15.673"></path>
<path fill="none" stroke="#6D6E71" enable-background="new    " d="M3.658,50.138V16.832c0-2.146,1.74-3.887,3.886-3.887h85.17
	c2.146,0,3.887,1.741,3.887,3.887v33.306"></path>
<path fill="none" stroke="#6D6E71" enable-background="new    " d="M8.527,50.138V24.604c0-2.146,1.74-3.886,3.886-3.886h75.815
	c2.147,0,3.887,1.74,3.887,3.886v25.534"></path>
</svg><style>@media (prefers-color-scheme: light) { :root { filter: contrast(1) brightness(0.6); } }
</style></svg>