<?xml version="1.0" encoding="utf-8"?>
<!-- Generator: Adobe Illustrator 14.0.0, SVG Export Plug-In . SVG Version: 6.00 Build 43363)  -->
<!DOCTYPE svg PUBLIC "-//W3C//DTD SVG 1.1//EN" "http://www.w3.org/Graphics/SVG/1.1/DTD/svg11.dtd">
<svg version="1.1" id="Layer_1" xmlns="http://www.w3.org/2000/svg" xmlns:xlink="http://www.w3.org/1999/xlink" x="0px" y="0px"
	 width="1000px" height="800px" viewBox="0 0 1000 800" enable-background="new 0 0 1000 800" xml:space="preserve">
<path opacity="0.2" fill="none" stroke="#D8C3A5" stroke-width="2" d="M0.461,444.541v101.828c0,6.629,5.373,12,12,12h350.293
	c6.627,0,12-5.371,12-12V444.541"/>
<path opacity="0.2" fill="none" stroke="#D8C3A5" stroke-width="2" d="M14.076,444.541v88.496c0,6.627,4.93,12,11.012,12h324.458
	c6.082,0,11.012-5.373,11.012-12v-88.496"/>
<path opacity="0.2" fill="none" stroke="#D8C3A5" stroke-width="2" d="M225.185,444.543v153.668c0,6.854,5.555,12.408,12.408,12.408
	h427.162c6.853,0,12.407-5.555,12.407-12.408V444.543"/>
<path opacity="0.2" fill="none" stroke="#D8C3A5" stroke-width="2" d="M236.952,444.541v140.664c0,6.852,5.555,12.408,12.408,12.408
	h400.126c6.852,0,12.406-5.557,12.406-12.408V444.541"/>
<path opacity="0.2" fill="none" stroke="#D8C3A5" stroke-width="2" d="M474.668,444.543v266.055
	c0,12.117,9.825,21.943,21.944,21.943h480.905c12.118,0,21.943-9.826,21.943-21.943V444.541"/>
<path opacity="0.2" fill="none" stroke="#D8C3A5" stroke-width="2" d="M500,444.543v222.168c0,12.121,9.824,21.945,21.943,21.945
	h428.082c12.119,0,21.943-9.824,21.943-21.945V444.543"/>
<path opacity="0.2" fill="none" stroke="#D8C3A5" stroke-width="2" d="M1000.461,444.541v29.828c0,6.629-5.373,12-12,12H638.168
	c-6.628,0-12-5.371-12-12v-29.828"/>
<path opacity="0.2" fill="none" stroke="#D8C3A5" stroke-width="2" d="M986.846,444.541v16.496c0,6.627-4.931,12-11.013,12H651.375
	c-6.082,0-11.013-5.373-11.013-12v-16.496"/>
<path opacity="0.2" fill="none" stroke="#D8C3A5" stroke-width="2" d="M775.737,444.541v81.67c0,6.854-5.556,12.408-12.408,12.408
	H336.168c-6.853,0-12.407-5.555-12.407-12.408v-81.67"/>
<path opacity="0.2" fill="none" stroke="#D8C3A5" stroke-width="2" d="M763.97,444.541v68.664c0,6.852-5.555,12.408-12.407,12.408
	H351.437c-6.852,0-12.406-5.557-12.406-12.408v-68.664"/>
<path opacity="0.2" fill="none" stroke="#D8C3A5" stroke-width="2" d="M525.253,444.541v188.057
	c0,12.117-9.824,21.943-21.943,21.943H22.404c-12.118,0-21.943-9.826-21.943-21.943V444.541"/>
<path opacity="0.2" fill="none" stroke="#D8C3A5" stroke-width="2" d="M499.922,444.541v144.17c0,12.121-9.824,21.945-21.943,21.945
	H49.896c-12.119,0-21.943-9.824-21.943-21.945v-144.17"/>
<path opacity="0.3" fill="#D8C3A5" d="M-1,445.167V343.339c0-6.628,5.373-12,12-12h350.293c6.627,0,12,5.372,12,12v101.828"/>
<path opacity="0.3" fill="#FFFFFF" d="M12.615,445.167v-88.495c0-6.628,4.93-12,11.012-12h324.458c6.082,0,11.012,5.372,11.012,12
	v88.495"/>
<path opacity="0.3" fill="#8E8D8A" stroke="#8E8D8A" d="M223.724,445.166V291.497c0-6.853,5.555-12.408,12.408-12.408h427.162
	c6.853,0,12.407,5.556,12.407,12.408v153.669"/>
<path opacity="0.3" fill="#E97F74" stroke="#8E8D8A" d="M235.491,445.167V304.503c0-6.852,5.555-12.408,12.408-12.408h400.126
	c6.852,0,12.406,5.557,12.406,12.408v140.664"/>
<path opacity="0.3" fill="#D8C3A5" d="M473.208,445.165V179.111c0-12.118,9.825-21.943,21.944-21.943h480.905
	c12.118,0,21.943,9.826,21.943,21.943v266.056"/>
<path opacity="0.3" fill="#8E8D8A" d="M498.539,445.165V222.998c0-12.121,9.824-21.945,21.943-21.945h428.082
	c12.119,0,21.943,9.824,21.943,21.945v222.167"/>
<path opacity="0.3" fill="#D8C3A5" d="M999,445.167v-29.828c0-6.628-5.373-12-12-12H636.707c-6.628,0-12,5.372-12,12v29.828"/>
<path opacity="0.3" fill="#FFFFFF" d="M985.385,444.167v-16.495c0-6.628-4.931-12-11.013-12H649.914
	c-6.082,0-11.013,5.372-11.013,12v16.495"/>
<path opacity="0.3" fill="#8E8D8A" stroke="#8E8D8A" d="M774.276,445.167v-81.67c0-6.853-5.556-12.408-12.408-12.408H334.707
	c-6.853,0-12.407,5.556-12.407,12.408v81.67"/>
<path opacity="0.3" fill="#E97F74" stroke="#8E8D8A" d="M762.509,445.167v-68.664c0-6.852-5.555-12.408-12.407-12.408H349.976
	c-6.852,0-12.406,5.557-12.406,12.408v68.664"/>
<path opacity="0.3" fill="#D8C3A5" d="M523.792,445.167V257.11c0-12.117-9.824-21.943-21.943-21.943H20.943
	C8.825,235.167-1,244.993-1,257.11v188.057"/>
<path opacity="0.3" fill="#8E8D8A" d="M498.461,445.164V300.997c0-12.12-9.824-21.944-21.943-21.944H48.436
	c-12.119,0-21.943,9.824-21.943,21.944v144.17"/>
</svg>
