<?xml version="1.0" encoding="utf-8"?>
<!-- Generator: Adobe Illustrator 14.0.0, SVG Export Plug-In . SVG Version: 6.00 Build 43363)  -->
<!DOCTYPE svg PUBLIC "-//W3C//DTD SVG 1.1//EN" "http://www.w3.org/Graphics/SVG/1.1/DTD/svg11.dtd">
<svg version="1.1" id="Layer_1" xmlns="http://www.w3.org/2000/svg" xmlns:xlink="http://www.w3.org/1999/xlink" x="0px" y="0px"
	 width="500px" height="500px" viewBox="0 0 500 500" enable-background="new 0 0 500 500" xml:space="preserve">
<path opacity="0.3" fill="none" stroke="#D8C3A5" stroke-width="2" d="M0.232,236.842v51.036c0,3.323,2.692,6.015,6.014,6.015
	h175.565c3.321,0,6.014-2.691,6.014-6.015v-51.036"/>
<path opacity="0.3" fill="none" stroke="#D8C3A5" stroke-width="2" d="M7.055,236.842v44.354c0,3.321,2.471,6.015,5.52,6.015
	h162.617c3.048,0,5.519-2.693,5.519-6.015v-44.354"/>
<path opacity="0.3" fill="none" stroke="#D8C3A5" stroke-width="2" d="M112.861,236.843v77.018c0,3.435,2.784,6.219,6.219,6.219
	h214.09c3.436,0,6.219-2.784,6.219-6.219v-77.018"/>
<path opacity="0.3" fill="none" stroke="#D8C3A5" stroke-width="2" d="M118.759,236.842v70.5c0,3.435,2.783,6.219,6.219,6.219
	h200.541c3.434,0,6.218-2.784,6.218-6.219v-70.5"/>
<path opacity="0.3" fill="none" stroke="#D8C3A5" stroke-width="2" d="M237.901,236.843v133.345c0,6.073,4.924,10.998,10.999,10.998
	h241.026c6.073,0,10.999-4.925,10.999-10.998V236.842"/>
<path opacity="0.3" fill="none" stroke="#D8C3A5" stroke-width="2" d="M250.597,236.843v111.349c0,6.076,4.924,11,10.999,11h214.552
	c6.074,0,10.998-4.924,10.998-11V236.843"/>
<path opacity="0.3" fill="none" stroke="#D8C3A5" stroke-width="2" d="M501.425,236.842v14.951c0,3.322-2.692,6.014-6.014,6.014
	H319.847c-3.322,0-6.015-2.691-6.015-6.014v-14.951"/>
<path opacity="0.3" fill="none" stroke="#D8C3A5" stroke-width="2" d="M494.601,236.842v8.268c0,3.322-2.471,6.015-5.52,6.015
	H326.466c-3.049,0-5.52-2.692-5.52-6.015v-8.268"/>
<path opacity="0.3" fill="none" stroke="#D8C3A5" stroke-width="2" d="M388.795,236.842v40.932c0,3.436-2.785,6.219-6.219,6.219
	H168.485c-3.434,0-6.219-2.783-6.219-6.219v-40.932"/>
<path opacity="0.3" fill="none" stroke="#D8C3A5" stroke-width="2" d="M382.897,236.842v34.415c0,3.434-2.784,6.219-6.219,6.219
	H176.138c-3.434,0-6.219-2.785-6.219-6.219v-34.415"/>
<path opacity="0.3" fill="none" stroke="#D8C3A5" stroke-width="2" d="M263.254,236.842v94.253c0,6.073-4.924,10.998-10.998,10.998
	H11.229c-6.073,0-10.997-4.925-10.997-10.998v-94.253"/>
<path opacity="0.3" fill="none" stroke="#D8C3A5" stroke-width="2" d="M250.558,236.842V309.1c0,6.075-4.924,10.999-10.998,10.999
	H25.008c-6.074,0-10.998-4.924-10.998-10.999v-72.257"/>
<path opacity="0.3" fill="#D8C3A5" d="M0,237.157v-51.036c0-3.322,2.693-6.014,6.014-6.014h175.564c3.322,0,6.016,2.692,6.016,6.014
	v51.036"/>
<path opacity="0.3" fill="#FFFFFF" d="M6.824,237.157v-44.354c0-3.322,2.471-6.014,5.52-6.014H174.96
	c3.047,0,5.519,2.692,5.519,6.014v44.354"/>
<path opacity="0.3" fill="#8E8D8A" stroke="#8E8D8A" d="M112.631,237.155v-77.018c0-3.435,2.784-6.219,6.218-6.219h214.09
	c3.435,0,6.219,2.784,6.219,6.219v77.018"/>
<path opacity="0.3" fill="#E97F74" stroke="#8E8D8A" d="M118.527,237.157v-70.501c0-3.433,2.785-6.218,6.219-6.218h200.541
	c3.434,0,6.219,2.785,6.219,6.218v70.501"/>
<path opacity="0.3" fill="#D8C3A5" d="M237.67,237.155V103.811c0-6.073,4.924-10.997,10.998-10.997h241.027
	c6.073,0,10.997,4.924,10.997,10.997v133.346"/>
<path opacity="0.3" fill="#8E8D8A" d="M250.367,237.155V125.806c0-6.075,4.922-10.999,10.997-10.999h214.553
	c6.073,0,10.998,4.924,10.998,10.999v111.349"/>
<path opacity="0.3" fill="#D8C3A5" d="M501.194,237.157v-14.949c0-3.322-2.693-6.015-6.015-6.015H319.614
	c-3.32,0-6.014,2.693-6.014,6.015v14.949"/>
<path opacity="0.3" fill="#FFFFFF" d="M494.37,236.655v-8.267c0-3.322-2.471-6.014-5.52-6.014H326.234
	c-3.049,0-5.52,2.692-5.52,6.014v8.267"/>
<path opacity="0.3" fill="#8E8D8A" stroke="#8E8D8A" d="M388.563,237.157v-40.933c0-3.435-2.784-6.219-6.219-6.219h-214.09
	c-3.435,0-6.219,2.784-6.219,6.219v40.933"/>
<path opacity="0.3" fill="#E97F74" stroke="#8E8D8A" d="M382.666,237.157v-34.415c0-3.434-2.783-6.219-6.219-6.219h-200.54
	c-3.435,0-6.219,2.785-6.219,6.219v34.415"/>
<path opacity="0.3" fill="#D8C3A5" d="M263.022,237.157v-94.253c0-6.073-4.924-10.997-10.997-10.997H10.999
	C4.925,131.906,0,136.83,0,142.903v94.253"/>
<path opacity="0.3" fill="#8E8D8A" d="M250.327,237.155V164.9c0-6.076-4.924-11-10.998-11H24.777c-6.074,0-10.999,4.924-10.999,11
	v72.257"/>
</svg>
