<?xml version="1.0" encoding="utf-8"?>
<!-- Generator: Adobe Illustrator 14.0.0, SVG Export Plug-In . SVG Version: 6.00 Build 43363)  -->
<!DOCTYPE svg PUBLIC "-//W3C//DTD SVG 1.1//EN" "http://www.w3.org/Graphics/SVG/1.1/DTD/svg11.dtd">
<svg version="1.1" id="Layer_1" xmlns="http://www.w3.org/2000/svg" xmlns:xlink="http://www.w3.org/1999/xlink" x="0px" y="0px"
	 width="500px" height="250px" viewBox="0 0 500 250" enable-background="new 0 0 500 250" xml:space="preserve">
<path opacity="0.3" fill="none" stroke="#FFFFFF" stroke-width="2" enable-background="new    " d="M-0.597-0.013v51.036
	c0,3.323,2.692,6.015,6.014,6.015h175.565c3.321,0,6.014-2.69,6.014-6.015V-0.013"/>
<path opacity="0.3" fill="none" stroke="#FFFFFF" stroke-width="2" enable-background="new    " d="M6.227-0.013v44.354
	c0,3.322,2.471,6.016,5.52,6.016h162.617c3.048,0,5.519-2.693,5.519-6.016V-0.013"/>
<path opacity="0.3" fill="none" stroke="#FFFFFF" stroke-width="2" enable-background="new    " d="M112.032-0.012v77.019
	c0,3.435,2.784,6.219,6.219,6.219H332.34c3.436,0,6.219-2.784,6.219-6.219V-0.012"/>
<path opacity="0.3" fill="none" stroke="#FFFFFF" stroke-width="2" enable-background="new    " d="M117.93-0.013v70.5
	c0,3.436,2.783,6.219,6.219,6.219h200.541c3.435,0,6.218-2.783,6.218-6.219v-70.5"/>
<path opacity="0.3" fill="none" stroke="#FFFFFF" stroke-width="2" enable-background="new    " d="M237.072-0.012v133.345
	c0,6.073,4.924,10.998,10.999,10.998h241.025c6.074,0,11-4.925,11-10.998V-0.013"/>
<path opacity="0.3" fill="none" stroke="#FFFFFF" stroke-width="2" enable-background="new    " d="M249.769-0.012v111.35
	c0,6.075,4.922,11,10.999,11H475.32c6.073,0,10.998-4.925,10.998-11V-0.012"/>
<path opacity="0.3" fill="none" stroke="#FFFFFF" stroke-width="2" enable-background="new    " d="M500.597-0.013v14.951
	c0,3.322-2.69,6.014-6.014,6.014H319.02c-3.322,0-6.017-2.69-6.017-6.014V-0.013"/>
<path opacity="0.3" fill="none" stroke="#FFFFFF" stroke-width="2" enable-background="new    " d="M493.772-0.013v8.268
	c0,3.322-2.472,6.015-5.521,6.015H325.639c-3.05,0-5.521-2.692-5.521-6.015v-8.268"/>
<path opacity="0.3" fill="none" stroke="#FFFFFF" stroke-width="2" enable-background="new    " d="M387.966-0.013v40.932
	c0,3.437-2.784,6.22-6.219,6.22H167.656c-3.434,0-6.219-2.783-6.219-6.22V-0.013"/>
<path opacity="0.3" fill="none" stroke="#FFFFFF" stroke-width="2" enable-background="new    " d="M382.066-0.013v34.415
	c0,3.435-2.782,6.22-6.219,6.22H175.31c-3.434,0-6.219-2.785-6.219-6.22V-0.013"/>
<path opacity="0.3" fill="none" stroke="#FFFFFF" stroke-width="2" enable-background="new    " d="M262.425-0.013V94.24
	c0,6.073-4.924,10.998-10.998,10.998H10.4c-6.073,0-10.997-4.925-10.997-10.998V-0.013"/>
<path opacity="0.3" fill="none" stroke="#FFFFFF" stroke-width="2" enable-background="new    " d="M249.73-0.013v72.258
	c0,6.075-4.925,10.999-10.999,10.999H24.179c-6.074,0-10.998-4.924-10.998-10.999V-0.012"/>
</svg>
