<?xml version="1.0" encoding="utf-8"?>
<!-- Generator: Adobe Illustrator 14.0.0, SVG Export Plug-In . SVG Version: 6.00 Build 43363)  -->
<!DOCTYPE svg PUBLIC "-//W3C//DTD SVG 1.1//EN" "http://www.w3.org/Graphics/SVG/1.1/DTD/svg11.dtd">
<svg version="1.1" id="Layer_1" xmlns="http://www.w3.org/2000/svg" xmlns:xlink="http://www.w3.org/1999/xlink" x="0px" y="0px"
	 width="1000px" height="400px" viewBox="0 0 1000 400" enable-background="new 0 0 1000 400" xml:space="preserve">
<path opacity="0.3" fill="none" stroke="#D8C3A5" d="M0,0v101.828c0,6.628,5.373,12,12,12h350.293c6.627,0,12-5.372,12-12V0"/>
<path opacity="0.3" fill="none" stroke="#D8C3A5" d="M13.615,0v88.495c0,6.628,4.93,12,11.012,12h324.458
	c6.082,0,11.012-5.372,11.012-12V0"/>
<path opacity="0.3" fill="none" stroke="#D8C3A5" d="M224.724,0.001V153.67c0,6.853,5.555,12.408,12.408,12.408h427.162
	c6.853,0,12.407-5.556,12.407-12.408V0.001"/>
<path opacity="0.3" fill="none" stroke="#D8C3A5" d="M236.491,0v140.664c0,6.852,5.555,12.408,12.408,12.408h400.126
	c6.852,0,12.406-5.557,12.406-12.408V0"/>
<path opacity="0.3" fill="none" stroke="#D8C3A5" d="M474.208,0.002v266.055c0,12.117,9.825,21.943,21.944,21.943h480.905
	c12.118,0,21.943-9.826,21.943-21.943V0"/>
<path opacity="0.3" fill="none" stroke="#D8C3A5" d="M499.539,0.002V222.17c0,12.12,9.824,21.944,21.943,21.944h428.082
	c12.119,0,21.943-9.824,21.943-21.944V0.002"/>
<path opacity="0.3" fill="none" stroke="#D8C3A5" d="M1000,0v29.828c0,6.628-5.373,12-12,12H637.707c-6.628,0-12-5.372-12-12V0"/>
<path opacity="0.3" fill="none" stroke="#D8C3A5" d="M986.385,0v16.495c0,6.628-4.931,12-11.013,12H650.914
	c-6.082,0-11.013-5.372-11.013-12V0"/>
<path opacity="0.3" fill="none" stroke="#D8C3A5" d="M775.276,0v81.67c0,6.853-5.556,12.408-12.408,12.408H335.707
	c-6.853,0-12.407-5.556-12.407-12.408V0"/>
<path opacity="0.3" fill="none" stroke="#D8C3A5" d="M763.509,0v68.664c0,6.852-5.555,12.408-12.407,12.408H350.976
	c-6.852,0-12.406-5.557-12.406-12.408V0"/>
<path opacity="0.3" fill="none" stroke="#D8C3A5" d="M524.792-6v194.057c0,12.117-9.824,21.943-21.943,21.943H21.943
	C9.825,210,0,200.174,0,188.057V-6"/>
<path opacity="0.3" fill="none" stroke="#D8C3A5" d="M499.461-6v150.17c0,12.12-9.824,21.944-21.943,21.944H49.436
	c-12.119,0-21.943-9.824-21.943-21.944V-6"/>
</svg>
