<?xml version="1.0" encoding="utf-8"?>
<!-- Generator: Adobe Illustrator 14.0.0, SVG Export Plug-In . SVG Version: 6.00 Build 43363)  -->
<!DOCTYPE svg PUBLIC "-//W3C//DTD SVG 1.1//EN" "http://www.w3.org/Graphics/SVG/1.1/DTD/svg11.dtd">
<svg version="1.1" id="Layer_1" xmlns="http://www.w3.org/2000/svg" xmlns:xlink="http://www.w3.org/1999/xlink" x="0px" y="0px"
	 width="500px" height="500px" viewBox="0 0 500 500" enable-background="new 0 0 500 500" xml:space="preserve">
<path opacity="0.3" fill="#D8C3A5" enable-background="new    " d="M0,237.157v-51.036c0-3.322,2.693-6.014,6.014-6.014h175.564
	c3.322,0,6.016,2.692,6.016,6.014v51.036"/>
<path opacity="0.3" fill="#FFFFFF" enable-background="new    " d="M6.824,237.157v-44.354c0-3.322,2.471-6.014,5.52-6.014H174.96
	c3.047,0,5.519,2.692,5.519,6.014v44.354"/>
<path opacity="0.3" fill="#8E8D8A" stroke="#8E8D8A" enable-background="new    " d="M112.631,237.155v-77.018
	c0-3.435,2.784-6.219,6.218-6.219h214.09c3.435,0,6.219,2.784,6.219,6.219v77.018"/>
<path opacity="0.3" fill="#E97F74" stroke="#8E8D8A" enable-background="new    " d="M118.527,237.157v-70.501
	c0-3.433,2.785-6.218,6.219-6.218h200.541c3.434,0,6.219,2.785,6.219,6.218v70.501"/>
<path opacity="0.3" fill="#D8C3A5" enable-background="new    " d="M237.67,237.155V103.811c0-6.073,4.924-10.997,10.998-10.997
	h241.027c6.071,0,10.997,4.924,10.997,10.997v133.346"/>
<path opacity="0.3" fill="#8E8D8A" enable-background="new    " d="M250.367,237.155V125.806c0-6.075,4.922-10.999,10.997-10.999
	h214.553c6.073,0,10.998,4.924,10.998,10.999v111.349"/>
<path opacity="0.3" fill="#D8C3A5" enable-background="new    " d="M501.194,237.157v-14.949c0-3.322-2.693-6.015-6.017-6.015
	H319.614c-3.32,0-6.015,2.693-6.015,6.015v14.949"/>
<path opacity="0.3" fill="#FFFFFF" enable-background="new    " d="M494.37,236.655v-8.267c0-3.322-2.471-6.014-5.521-6.014H326.234
	c-3.049,0-5.521,2.692-5.521,6.014v8.267"/>
<path opacity="0.3" fill="#8E8D8A" stroke="#8E8D8A" enable-background="new    " d="M388.563,237.157v-40.933
	c0-3.435-2.783-6.219-6.219-6.219h-214.09c-3.435,0-6.219,2.784-6.219,6.219v40.933"/>
<path opacity="0.3" fill="#E97F74" stroke="#8E8D8A" enable-background="new    " d="M382.666,237.157v-34.415
	c0-3.434-2.783-6.219-6.219-6.219h-200.54c-3.435,0-6.219,2.785-6.219,6.219v34.415"/>
<path opacity="0.3" fill="#D8C3A5" enable-background="new    " d="M263.021,237.157v-94.253c0-6.073-4.924-10.997-10.996-10.997
	H10.999C4.925,131.906,0,136.83,0,142.903v94.253"/>
<path opacity="0.3" fill="#8E8D8A" enable-background="new    " d="M250.327,237.155V164.9c0-6.076-4.924-11-10.998-11H24.777
	c-6.074,0-10.999,4.924-10.999,11v72.257"/>
</svg>
