<?xml version="1.0" encoding="utf-8"?>
<!-- Generator: Adobe Illustrator 14.0.0, SVG Export Plug-In . SVG Version: 6.00 Build 43363)  -->
<!DOCTYPE svg PUBLIC "-//W3C//DTD SVG 1.1//EN" "http://www.w3.org/Graphics/SVG/1.1/DTD/svg11.dtd">
<svg version="1.1" id="Layer_1" xmlns="http://www.w3.org/2000/svg" xmlns:xlink="http://www.w3.org/1999/xlink" x="0px" y="0px"
	 width="1000px" height="400px" viewBox="0 0 1000 400" enable-background="new 0 0 1000 400" xml:space="preserve">
<path opacity="0.3" fill="none" stroke="#FFFFFF" stroke-width="2" enable-background="new    " d="M0,0v101.828
	c0,6.628,5.373,12,12,12h350.293c6.627,0,12-5.372,12-12V0"/>
<path opacity="0.3" fill="none" stroke="#FFFFFF" stroke-width="2" enable-background="new    " d="M13.615,0v88.495
	c0,6.628,4.93,12,11.012,12h324.458c6.082,0,11.012-5.372,11.012-12V0"/>
<path opacity="0.3" fill="none" stroke="#FFFFFF" stroke-width="2" enable-background="new    " d="M224.724,0.001V153.67
	c0,6.853,5.555,12.408,12.408,12.408h427.162c6.854,0,12.407-5.556,12.407-12.408V0.001"/>
<path opacity="0.3" fill="none" stroke="#FFFFFF" stroke-width="2" enable-background="new    " d="M236.491,0v140.664
	c0,6.852,5.555,12.408,12.408,12.408h400.126c6.852,0,12.405-5.557,12.405-12.408V0"/>
<path opacity="0.3" fill="none" stroke="#FFFFFF" stroke-width="2" enable-background="new    " d="M474.208,0.002v266.055
	c0,12.117,9.825,21.943,21.944,21.943h480.904c12.118,0,21.943-9.826,21.943-21.943V0"/>
<path opacity="0.3" fill="none" stroke="#FFFFFF" stroke-width="2" enable-background="new    " d="M499.539,0.002V222.17
	c0,12.12,9.824,21.943,21.943,21.943h428.082c12.118,0,21.942-9.823,21.942-21.943V0.002"/>
<path opacity="0.3" fill="none" stroke="#FFFFFF" stroke-width="2" enable-background="new    " d="M1000,0v29.828
	c0,6.628-5.373,12-12,12H637.707c-6.628,0-12-5.372-12-12V0"/>
<path opacity="0.3" fill="none" stroke="#FFFFFF" stroke-width="2" enable-background="new    " d="M986.385,0v16.495
	c0,6.628-4.931,12-11.013,12H650.914c-6.082,0-11.013-5.372-11.013-12V0"/>
<path opacity="0.3" fill="none" stroke="#FFFFFF" stroke-width="2" enable-background="new    " d="M775.276,0v81.67
	c0,6.853-5.557,12.408-12.408,12.408H335.707c-6.853,0-12.407-5.556-12.407-12.408V0"/>
<path opacity="0.3" fill="none" stroke="#FFFFFF" stroke-width="2" enable-background="new    " d="M763.509,0v68.664
	c0,6.852-5.555,12.408-12.407,12.408H350.976c-6.852,0-12.406-5.557-12.406-12.408V0"/>
<path opacity="0.3" fill="none" stroke="#FFFFFF" stroke-width="2" enable-background="new    " d="M524.792-6v194.057
	c0,12.117-9.824,21.943-21.943,21.943H21.943C9.825,210,0,200.174,0,188.057V-6"/>
<path opacity="0.3" fill="none" stroke="#FFFFFF" stroke-width="2" enable-background="new    " d="M499.461-6v150.17
	c0,12.12-9.824,21.944-21.943,21.944H49.436c-12.119,0-21.943-9.824-21.943-21.944V-6"/>
</svg>
